<?xml version="1.0" encoding="UTF-8"?>
<svg width="151px" height="81px" viewBox="0 0 151 81" version="1.1" xmlns="http://www.w3.org/2000/svg" xmlns:xlink="http://www.w3.org/1999/xlink">
    <!-- Generator: Sketch 41 (35326) - http://www.bohemiancoding.com/sketch -->
    <title>blog</title>
    <desc>Created with Sketch.</desc>
    <defs></defs>
    <g id="Page-1" stroke="none" stroke-width="1" fill="none" fill-rule="evenodd">
        <path d="M22.46,62.344 C19.4359849,62.344 16.6780125,61.7000064 14.186,60.412 C11.6939875,59.1239936 9.77600672,57.4160106 8.432,55.288 L8.096,55.288 L8.096,61 L0.704,61 L0.704,0.856 L8.432,0.856 L8.432,19.84 L8.096,25.552 L8.432,25.552 C9.77600672,23.4239894 11.6939875,21.7160064 14.186,20.428 C16.6780125,19.1399936 19.4359849,18.496 22.46,18.496 C27.8920272,18.496 32.4839812,20.6239787 36.236,24.88 C40.1000193,29.1920216 42.032,34.3719698 42.032,40.42 C42.032,46.5240305 40.1000193,51.7039787 36.236,55.96 C32.4839812,60.2160213 27.8920272,62.344 22.46,62.344 Z M21.2,55.288 C24.8960185,55.288 28.0039874,53.888014 30.524,51.088 C33.0440126,48.3439863 34.304,44.7880218 34.304,40.42 C34.304,36.1079784 33.0440126,32.552014 30.524,29.752 C28.0039874,26.951986 24.8960185,25.552 21.2,25.552 C17.4479812,25.552 14.3120126,26.951986 11.792,29.752 C9.32798768,32.552014 8.096,36.1079784 8.096,40.42 C8.096,44.7880218 9.32798768,48.371986 11.792,51.172 C14.3120126,53.9160137 17.4479812,55.288 21.2,55.288 Z M56.0729231,0.856 L56.0729231,61 L48.3449231,61 L48.3449231,0.856 L56.0729231,0.856 Z M62.3858462,40.42 C62.3858462,34.0919684 64.3738263,28.8560207 68.3498462,24.712 C72.3818664,20.5679793 77.4498157,18.496 83.5538462,18.496 C89.6578767,18.496 94.6978263,20.5679793 98.6738462,24.712 C102.705866,28.8560207 104.721846,34.0919684 104.721846,40.42 C104.721846,46.8040319 102.705866,52.0399796 98.6738462,56.128 C94.6978263,60.2720207 89.6578767,62.344 83.5538462,62.344 C77.4498157,62.344 72.3818664,60.2720207 68.3498462,56.128 C64.3738263,51.9839793 62.3858462,46.7480316 62.3858462,40.42 Z M70.1138462,40.42 C70.1138462,44.8440221 71.4018333,48.4279863 73.9778462,51.172 C76.5538591,53.9160137 79.7458272,55.288 83.5538462,55.288 C87.3618652,55.288 90.5538333,53.9160137 93.1298462,51.172 C95.7058591,48.4279863 96.9938462,44.8440221 96.9938462,40.42 C96.9938462,36.0519782 95.7058591,32.4960137 93.1298462,29.752 C90.497833,26.951986 87.305865,25.552 83.5538462,25.552 C79.8018274,25.552 76.6098594,26.951986 73.9778462,29.752 C71.4018333,32.4960137 70.1138462,36.0519782 70.1138462,40.42 Z M129.934769,55.288 C133.742788,55.288 136.850757,53.9160137 139.258769,51.172 C141.778782,48.4279863 143.038769,44.8440221 143.038769,40.42 C143.038769,36.1079784 141.778782,32.552014 139.258769,29.752 C136.794757,26.951986 133.686788,25.552 129.934769,25.552 C126.238751,25.552 123.130782,26.951986 120.610769,29.752 C118.090757,32.552014 116.830769,36.1079784 116.830769,40.42 C116.830769,44.7880218 118.090757,48.3439863 120.610769,51.088 C123.130782,53.888014 126.238751,55.288 129.934769,55.288 Z M129.682769,80.488 C127.386758,80.488 125.230779,80.1940029 123.214769,79.606 C121.198759,79.0179971 119.364778,78.1920053 117.712769,77.128 C116.060761,76.0639947 114.646775,74.8040073 113.470769,73.348 C112.294763,71.8919927 111.398772,70.268009 110.782769,68.476 L118.090769,65.452 C118.930773,67.860012 120.386759,69.7919927 122.458769,71.248 C124.53078,72.7040073 126.938756,73.432 129.682769,73.432 C133.88279,73.432 137.158758,72.1720126 139.510769,69.652 C141.862781,67.1319874 143.038769,63.6600221 143.038769,59.236 L143.038769,55.288 L142.702769,55.288 C141.246762,57.4720109 139.272782,59.1939937 136.780769,60.454 C134.288757,61.7140063 131.586784,62.344 128.674769,62.344 C123.298742,62.344 118.678789,60.244021 114.814769,56.044 C111.00675,51.7319784 109.102769,46.5240305 109.102769,40.42 C109.102769,34.3159695 111.00675,29.1360213 114.814769,24.88 C118.678789,20.6239787 123.298742,18.496 128.674769,18.496 C131.586784,18.496 134.288757,19.1259937 136.780769,20.386 C139.272782,21.6460063 141.246762,23.3679891 142.702769,25.552 L143.038769,25.552 L143.038769,19.84 L150.430769,19.84 L150.430769,59.236 C150.430769,65.844033 148.554788,71.0239812 144.802769,74.776 C140.99475,78.584019 135.954801,80.488 129.682769,80.488 Z" id="blog" fill="#3A3A3A"></path>
    </g>
</svg>